<svg xmlns="http://www.w3.org/2000/svg" id="undock-float" width="24" height="24" fill="none" stroke="currentColor" viewBox="0 0 24 24"><path fill-rule="evenodd" stroke-linecap="round" stroke-linejoin="round" stroke-width="2" d="M3 11C3 9.89543 3.89543 9 5 9H13C14.1046 9 15 9.89543 15 11V19C15 20.1046 14.1046 21 13 21H5C3.89543 21 3 20.1046 3 19V11Z" clip-rule="evenodd"/><path fill-rule="evenodd" stroke-linecap="round" stroke-linejoin="round" stroke-width="2" d="M9 5C9 3.89543 9.89543 3 11 3H19C20.1046 3 21 3.89543 21 5V13C21 14.1046 20.1046 15 19 15H11C9.89543 15 9 14.1046 9 13V5Z" clip-rule="evenodd"/></svg>